<svg width="18" height="18" viewBox="0 0 18 18" fill="none" xmlns="http://www.w3.org/2000/svg">
<path d="M9 7.5C9.19891 7.5 9.38968 7.57902 9.53033 7.71967C9.67098 7.86032 9.75 8.05109 9.75 8.25V12.75C9.75 12.9489 9.67098 13.1397 9.53033 13.2803C9.38968 13.421 9.19891 13.5 9 13.5C8.80109 13.5 8.61032 13.421 8.46967 13.2803C8.32902 13.1397 8.25 12.9489 8.25 12.75V8.25C8.25 8.05109 8.32902 7.86032 8.46967 7.71967C8.61032 7.57902 8.80109 7.5 9 7.5ZM9 6.375C9.14774 6.375 9.29403 6.3459 9.43052 6.28936C9.56701 6.23283 9.69103 6.14996 9.79549 6.0455C9.89996 5.94103 9.98283 5.81701 10.0394 5.68052C10.0959 5.54403 10.125 5.39774 10.125 5.25C10.125 5.10226 10.0959 4.95597 10.0394 4.81948C9.98283 4.68299 9.89996 4.55897 9.79549 4.4545C9.69103 4.35004 9.56701 4.26717 9.43052 4.21064C9.29403 4.1541 9.14774 4.125 9 4.125C8.70203 4.125 8.41626 4.24337 8.20557 4.45407C7.99487 4.66476 7.8765 4.95053 7.8765 5.2485C7.8765 5.54647 7.99487 5.83224 8.20557 6.04293C8.41626 6.25363 8.70203 6.372 9 6.372V6.375ZM0 9C-1.76116e-08 7.8181 0.232792 6.64778 0.685084 5.55585C1.13738 4.46392 1.80031 3.47177 2.63604 2.63604C3.47177 1.80031 4.46392 1.13738 5.55585 0.685084C6.64778 0.232792 7.8181 0 9 0C10.1819 0 11.3522 0.232792 12.4442 0.685084C13.5361 1.13738 14.5282 1.80031 15.364 2.63604C16.1997 3.47177 16.8626 4.46392 17.3149 5.55585C17.7672 6.64778 18 7.8181 18 9C18 11.3869 17.0518 13.6761 15.364 15.364C13.6761 17.0518 11.3869 18 9 18C6.61305 18 4.32387 17.0518 2.63604 15.364C0.948211 13.6761 3.55683e-08 11.3869 0 9ZM9 1.5C7.01088 1.5 5.10322 2.29018 3.6967 3.6967C2.29018 5.10322 1.5 7.01088 1.5 9C1.5 10.9891 2.29018 12.8968 3.6967 14.3033C5.10322 15.7098 7.01088 16.5 9 16.5C10.9891 16.5 12.8968 15.7098 14.3033 14.3033C15.7098 12.8968 16.5 10.9891 16.5 9C16.5 7.01088 15.7098 5.10322 14.3033 3.6967C12.8968 2.29018 10.9891 1.5 9 1.5Z" fill="#EEEEEE"/>
</svg>
