<svg width="84" height="84" viewBox="0 0 84 84" fill="none" xmlns="http://www.w3.org/2000/svg">
<circle cx="42" cy="42" r="42" fill="#83B3CB"/>
<path d="M84 42C84 51.4704 80.7993 60.6629 74.9174 68.0853C69.0355 75.5078 60.8177 80.7244 51.5979 82.8886C42.3781 85.0528 32.6974 84.0375 24.1273 80.0074C15.5571 75.9774 8.60051 69.1692 4.38665 60.6879C0.172795 52.2066 -1.05098 42.55 0.913979 33.2857C2.87893 24.0214 7.91727 15.693 15.2112 9.65252C22.5051 3.61201 31.6264 0.2139 41.0947 0.0097587C50.5629 -0.194383 59.8222 2.80743 67.3697 8.52795L42 42H84Z" fill="#615C9A"/>
<path d="M84 42C84 50.5568 81.3864 58.9095 76.509 65.9402C71.6315 72.9708 64.723 78.344 56.708 81.3405C48.693 84.337 39.9539 84.8139 31.6605 82.7074C23.367 80.6009 15.9148 76.0115 10.3012 69.5533C4.68765 63.0952 1.1806 55.0765 0.249428 46.5705C-0.681744 38.0645 1.00739 29.477 5.09077 21.9573C9.17414 14.4377 15.4569 8.34462 23.0982 4.49369C30.7395 0.642757 39.3748 -0.782329 47.8483 0.409163L42 42H84Z" fill="#B9D8E8"/>
</svg>
